<svg width="900" height="125" viewBox="0 0 900 125" xmlns="http://www.w3.org/2000/svg">
  <style>
    path, rect {
      fill: #FFFFFF;
    }
  </style>

  <!-- S -->
  <g transform="translate(10, 30)">
    <path d="M 40,20 C 50,20 55,25 55,35 L 40,35 C 40,30 37,27 32,27 C 27,27 22,30 22,35 C 22,40 27,42 35,45 L 42,48 C 52,52 57,57 57,67 C 57,77 50,85 35,85 C 20,85 13,77 13,67 L 28,67 C 28,72 31,75 35,75 C 39,75 42,72 42,67 C 42,62 37,60 29,57 L 22,54 C 12,50 7,45 7,35 C 7,25 15,20 32,20 C 37,20 40,20 40,20 Z"/>
  </g>

  <!-- U -->
  <g transform="translate(70, 30)">
    <path d="M 10,20 L 10,70 C 10,85 15,90 25,90 C 35,90 40,85 40,70 L 40,20 L 55,20 L 55,70 C 55,95 45,105 25,105 C 5,105 -5,95 -5,70 L -5,20 L 10,20 Z"/>
  </g>

  <!-- B -->
  <g transform="translate(140, 30)">
    <path d="M 10,20 L 10,100 L 35,100 C 50,100 60,90 60,75 C 60,65 55,60 45,55 C 55,50 60,45 60,35 C 60,25 50,20 35,20 L 10,20 Z M 25,35 L 35,35 C 40,35 45,40 45,45 C 45,50 40,55 35,55 L 25,55 L 25,35 Z M 25,70 L 35,70 C 42,70 47,75 47,80 C 47,85 42,90 35,90 L 25,90 L 25,70 Z"/>
  </g>

  <!-- T -->
  <g transform="translate(220, 30)">
    <path d="M 0,20 L 50,20 L 50,35 L 32.5,35 L 32.5,100 L 17.5,100 L 17.5,35 L 0,35 L 0,20 Z"/>
  </g>

  <!-- U -->
  <g transform="translate(290, 30)">
    <path d="M 10,20 L 10,70 C 10,85 15,90 25,90 C 35,90 40,85 40,70 L 40,20 L 55,20 L 55,70 C 55,95 45,105 25,105 C 5,105 -5,95 -5,70 L -5,20 L 10,20 Z"/>
  </g>

  <!-- R -->
  <g transform="translate(360, 30)">
    <path d="M 10,20 L 10,100 L 25,100 L 25,65 L 35,65 C 40,65 42,67 45,75 L 50,100 L 65,100 L 58,70 C 55,62 52,58 45,55 C 52,52 57,47 57,37 C 57,25 47,20 35,20 L 10,20 Z M 25,35 L 35,35 C 40,35 42,37 42,42 C 42,47 40,50 35,50 L 25,50 L 25,35 Z"/>
  </g>

  <!-- T -->
  <g transform="translate(430, 30)">
    <path d="M 0,20 L 50,20 L 50,35 L 32.5,35 L 32.5,100 L 17.5,100 L 17.5,35 L 0,35 L 0,20 Z"/>
  </g>

  <!-- L -->
  <g transform="translate(500, 30)">
    <path d="M 10,20 L 10,85 L 45,85 L 45,100 L -5,100 L -5,20 L 10,20 Z"/>
  </g>

  <!-- E -->
  <g transform="translate(560, 30)">
    <path d="M 10,20 L 10,100 L 50,100 L 50,85 L 25,85 L 25,65 L 45,65 L 45,50 L 25,50 L 25,35 L 50,35 L 50,20 L 10,20 Z"/>
  </g>

</svg>